<svg width="16" height="16" viewBox="0 0 16 16" fill="none" xmlns="http://www.w3.org/2000/svg">
<path d="M6.53701 1.3901C6.66563 0.995564 6.69483 0.426422 6.89434 0.11236C7.24053 -0.0544372 8.55713 -0.0156675 8.93809 0.0997622C9.14356 0.278571 9.21524 1.0941 9.33291 1.43824C9.74668 1.59586 10.174 1.72808 10.5962 1.89C11.0205 1.57945 11.3314 1.26754 11.7901 0.961288C12.1124 1.11031 13.1637 1.74205 13.2814 2.08424C13.4271 2.50689 13.0345 3.11998 12.8379 3.51431C13.0695 3.92203 13.3445 4.30357 13.6581 4.65221C15.5936 4.48834 15.318 4.63365 15.7942 6.45523C15.4578 6.8067 14.9624 6.98717 14.5409 7.27437L14.5273 8.56197C14.89 8.78756 15.6528 9.11422 15.7652 9.51929C15.8645 9.87652 15.3717 10.9033 15.1927 11.2245C14.7479 11.214 14.358 11.1902 13.9142 11.1547C13.8592 11.1519 13.7862 11.1674 13.7286 11.1759C13.4337 11.3752 13.0644 11.9708 12.8498 12.287C13.3059 13.451 13.7591 13.6157 12.4393 14.4115C12.2511 14.5249 11.9899 14.719 11.7963 14.8491C11.3675 14.5055 11.0544 14.2294 10.6527 13.8581C10.179 13.984 9.79209 14.1337 9.33564 14.3051C9.27803 14.5485 9.06455 15.6088 8.90469 15.6683C8.53369 15.8066 7.30947 15.7744 6.93467 15.6805C6.73105 15.5049 6.59541 14.5446 6.52246 14.2158C6.09687 14.1141 5.58057 13.9165 5.15977 13.7685C4.85625 14.0349 4.31631 14.5376 3.99482 14.7374C3.38301 14.363 2.88194 14.0214 2.35557 13.5365C2.46309 13.1837 2.76641 12.5581 2.92529 12.2059C2.65078 11.8345 2.38184 11.4589 2.11865 11.0795C1.61992 11.139 1.09131 11.1955 0.590819 11.2021C0.382714 10.6824 0.123633 9.84225 0 9.30074C0.361035 9.02877 0.880174 8.78101 1.28945 8.56803L1.27744 7.10895C1.10185 7.00523 0.787888 6.86978 0.594431 6.77916C0.599998 6.32555 0.595213 5.87193 0.580174 5.41861C0.572264 5.13531 0.514065 4.85543 0.702053 4.6566C1.02627 4.51412 1.79707 4.65123 2.22647 4.64722L2.27852 4.64635C2.34463 4.3441 2.80674 3.78853 3.01026 3.51226C2.16572 1.71656 2.49756 2.01226 4.03233 0.942927C4.38858 1.15396 4.84629 1.62027 5.22578 1.90142C5.56944 1.78463 6.26192 1.57974 6.53701 1.3901ZM3.81318 5.98463C3.40371 6.87105 3.29365 7.86656 3.49971 8.82096C3.96513 10.9774 5.92539 12.4784 8.12861 12.3653C10.3318 12.2523 12.1282 10.5586 12.3705 8.36578C12.6129 6.17301 11.2297 4.12799 9.1043 3.53658C6.97901 2.94518 4.73828 3.9818 3.81318 5.98463ZM12.5546 7.80934C12.6662 7.9525 12.7852 8.09772 12.887 8.24723C12.8708 8.85777 12.6766 10.8674 12.8774 11.2539C13.0544 11.2719 13.1296 11.2963 13.2931 11.2253C13.3695 11.126 13.3695 11.0117 13.3678 10.8895C13.3472 9.44674 13.2809 8.01432 13.3297 6.56959C13.3494 5.98492 13.3477 5.37691 13.3011 4.7943C13.2895 4.64791 13.2364 4.61832 13.0924 4.57164C12.5012 5.2108 12.4755 6.38961 12.5123 7.22135C12.5223 7.41754 12.5363 7.61363 12.5546 7.80934ZM2.66045 7.09312C2.65605 8.32769 2.54736 9.58619 2.55557 10.8203C2.55684 11.0097 2.62109 11.3206 2.85615 11.3128C3.31973 10.9199 3.08076 10.2613 3.09551 9.68893C2.99053 9.0734 3.0084 7.68824 3.02373 7.05064C3.52891 6.6023 3.46319 6.12242 3.45625 5.50582C3.43789 5.13746 3.3999 4.96402 3.32217 4.60045C3.20654 5.02447 3.29746 5.86012 3.20176 5.99518L3.08926 5.95553C2.97461 5.58492 3.1085 5.08238 3.0252 4.66216L2.96836 4.70465C2.9293 5.03062 2.93642 5.73434 2.87637 5.92789L2.80263 5.96236C2.59179 5.66031 2.81787 4.7399 2.60967 4.65816L2.55185 4.75934C2.55547 5.02828 2.60518 5.90494 2.46152 6.07545C2.29033 5.90543 2.45498 4.90416 2.29229 4.69263C2.19073 5.27574 2.21318 5.91129 2.22471 6.50543C2.36533 6.70025 2.50879 6.90797 2.66045 7.09312Z" fill="#FA680B"/>
<path d="M7.55782 3.88785C9.74151 3.70201 11.6665 5.31168 11.8701 7.49371C12.0738 9.67584 10.48 11.6139 8.29961 11.8354C6.09395 12.0595 4.12832 10.443 3.92236 8.2356C3.71631 6.02818 5.34883 4.07583 7.55782 3.88785ZM7.9585 10.6234C9.47344 10.5846 10.6738 9.3315 10.6475 7.81626C10.6211 6.30103 9.37794 5.09038 7.86251 5.10435C6.3294 5.11841 5.10147 6.37925 5.12813 7.91226C5.15479 9.44527 6.42578 10.6626 7.9585 10.6234Z" fill="#FA680B"/>
<path d="M7.47539 5.50914C8.78682 5.28678 10.0292 6.17233 10.2469 7.48443C10.4645 8.79664 9.57441 10.0358 8.26142 10.2487C6.95527 10.4604 5.72383 9.57594 5.50733 8.27047C5.29082 6.9651 6.1708 5.73043 7.47539 5.50914Z" fill="#FA680B"/>
</svg>
