<svg width="76" height="19" viewBox="0 0 76 19" fill="none" xmlns="http://www.w3.org/2000/svg">
<path d="M46.2244 1.3901C46.353 0.995564 46.3822 0.426422 46.5817 0.11236C46.9279 -0.0544372 48.2445 -0.0156675 48.6255 0.0997622C48.8309 0.278571 48.9026 1.0941 49.0203 1.43824C49.4341 1.59586 49.8614 1.72808 50.2836 1.89C50.7079 1.57945 51.0188 1.26754 51.4775 0.961288C51.7998 1.11031 52.8511 1.74205 52.9688 2.08424C53.1144 2.50689 52.7219 3.11998 52.5253 3.51431C52.7569 3.92203 53.0319 4.30357 53.3455 4.65221C55.281 4.48834 55.0054 4.63365 55.4816 6.45523C55.1452 6.8067 54.6498 6.98717 54.2283 7.27437L54.2147 8.56197C54.5774 8.78756 55.3402 9.11422 55.4526 9.51929C55.5518 9.87652 55.0591 10.9033 54.8801 11.2245C54.4352 11.214 54.0454 11.1902 53.6016 11.1547C53.5466 11.1519 53.4736 11.1674 53.416 11.1759C53.1211 11.3752 52.7518 11.9708 52.5372 12.287C52.9933 13.451 53.4465 13.6157 52.1267 14.4115C51.9385 14.5249 51.6773 14.719 51.4837 14.8491C51.0549 14.5055 50.7418 14.2294 50.3401 13.8581C49.8664 13.984 49.4795 14.1337 49.023 14.3051C48.9654 14.5485 48.7519 15.6088 48.5921 15.6683C48.2211 15.8066 46.9969 15.7744 46.6221 15.6805C46.4184 15.5049 46.2828 14.5446 46.2099 14.2158C45.7843 14.1141 45.268 13.9165 44.8472 13.7685C44.5436 14.0349 44.0037 14.5376 43.6822 14.7374C43.0704 14.363 42.5693 14.0214 42.043 13.5365C42.1505 13.1837 42.4538 12.5581 42.6127 12.2059C42.3382 11.8345 42.0692 11.4589 41.806 11.0795C41.3073 11.139 40.7787 11.1955 40.2782 11.2021C40.0701 10.6824 39.811 9.84225 39.6874 9.30074C40.0484 9.02877 40.5676 8.78101 40.9768 8.56803L40.9648 7.10895C40.7892 7.00523 40.4753 6.86978 40.2818 6.77916C40.2874 6.32555 40.2826 5.87193 40.2676 5.41861C40.2597 5.13531 40.2015 4.85543 40.3894 4.6566C40.7137 4.51412 41.4845 4.65123 41.9139 4.64722L41.9659 4.64635C42.032 4.3441 42.4941 3.78853 42.6976 3.51226C41.8531 1.71656 42.185 2.01226 43.7197 0.942927C44.076 1.15396 44.5337 1.62027 44.9132 1.90142C45.2568 1.78463 45.9493 1.57974 46.2244 1.3901ZM43.5006 5.98463C43.0911 6.87105 42.981 7.86656 43.1871 8.82096C43.6525 10.9774 45.6128 12.4784 47.816 12.3653C50.0192 12.2523 51.8156 10.5586 52.0579 8.36578C52.3003 6.17301 50.9171 4.12799 48.7917 3.53658C46.6664 2.94518 44.4257 3.9818 43.5006 5.98463ZM52.242 7.80934C52.3536 7.9525 52.4726 8.09772 52.5744 8.24723C52.5582 8.85777 52.364 10.8674 52.5648 11.2539C52.7418 11.2719 52.817 11.2963 52.9805 11.2253C53.0569 11.126 53.0569 11.0117 53.0552 10.8895C53.0346 9.44674 52.9683 8.01432 53.0171 6.56959C53.0368 5.98492 53.0351 5.37691 52.9885 4.7943C52.9768 4.64791 52.9238 4.61832 52.7798 4.57164C52.1886 5.2108 52.1629 6.38961 52.1997 7.22135C52.2097 7.41754 52.2237 7.61363 52.242 7.80934ZM42.3478 7.09312C42.3434 8.32769 42.2348 9.58619 42.243 10.8203C42.2442 11.0097 42.3085 11.3206 42.5435 11.3128C43.0071 10.9199 42.7682 10.2613 42.7829 9.68893C42.6779 9.0734 42.6958 7.68824 42.7111 7.05064C43.2163 6.6023 43.1506 6.12242 43.1436 5.50582C43.1253 5.13746 43.0873 4.96402 43.0096 4.60045C42.8939 5.02447 42.9849 5.86012 42.8892 5.99518L42.7767 5.95553C42.662 5.58492 42.7959 5.08238 42.7126 4.66216L42.6558 4.70465C42.6167 5.03062 42.6238 5.73434 42.5638 5.92789L42.49 5.96236C42.2792 5.66031 42.5053 4.7399 42.2971 4.65816L42.2392 4.75934C42.2429 5.02828 42.2926 5.90494 42.1489 6.07545C41.9777 5.90543 42.1424 4.90416 41.9797 4.69263C41.8781 5.27574 41.9006 5.91129 41.9121 6.50543C42.0527 6.70025 42.1962 6.90797 42.3478 7.09312Z" fill="#FA680B"/>
<path d="M47.2452 3.88785C49.4289 3.70201 51.3539 5.31168 51.5575 7.49371C51.7612 9.67584 50.1674 11.6139 47.987 11.8354C45.7813 12.0595 43.8157 10.443 43.6098 8.2356C43.4037 6.02818 45.0362 4.07583 47.2452 3.88785ZM47.6459 10.6234C49.1608 10.5846 50.3612 9.3315 50.3349 7.81626C50.3085 6.30103 49.0653 5.09038 47.5499 5.10435C46.0168 5.11841 44.7889 6.37925 44.8155 7.91226C44.8422 9.44527 46.1132 10.6626 47.6459 10.6234Z" fill="#FA680B"/>
<path d="M47.1628 5.50914C48.4742 5.28678 49.7166 6.17233 49.9343 7.48443C50.1518 8.79664 49.2618 10.0358 47.9488 10.2487C46.6427 10.4604 45.4112 9.57594 45.1947 8.27047C44.9782 6.9651 45.8582 5.73043 47.1628 5.50914Z" fill="#FA680B"/>
<path d="M61.4861 4.52496C62.7126 4.33658 64.3201 4.80143 65.1364 5.69098C67.8533 8.65094 66.5965 14.7031 61.907 14.5088C60.492 14.4502 59.9816 14.0462 59.0478 13.0837C59.098 14.0794 59.0824 15.1535 59.0851 16.1559L59.1005 18.1947C58.1751 18.2228 57.1977 18.2156 56.2683 18.2236L56.2666 4.7358C57.1046 4.70836 57.9795 4.7152 58.8205 4.71022C58.855 5.1152 58.9278 5.74196 58.8996 6.12975C59.627 5.18551 60.3324 4.7482 61.4861 4.52496ZM61.7925 12.3651C63.5798 12.0552 63.9212 10.2258 63.6678 8.72116C63.3998 7.12955 62.4188 6.58834 60.9322 6.67233C58.7862 7.07018 58.927 9.0777 59.0907 10.7672C59.2102 12.0013 60.7105 12.5497 61.7925 12.3651Z" fill="#FA680B"/>
<path d="M12.41 0.367039C13.1097 0.317136 14.3942 0.363231 15.147 0.358739C15.0422 1.66548 15.1427 4.24555 15.1546 5.6518C16.7399 4.32182 19.2019 3.88911 20.8143 5.37085C21.9992 6.45991 21.791 8.65151 21.7854 10.0947L21.7824 14.2598C20.855 14.226 19.9264 14.2307 18.9993 14.2737C19.0262 13.148 19.0092 11.9527 19.0093 10.8214C19.0126 10.2187 18.9891 9.49126 19.0164 8.90356C19.154 5.94516 16.8768 6.39722 15.1501 7.70034L15.1518 14.2619C14.3473 14.2068 13.2288 14.242 12.4167 14.2551L12.41 0.367039Z" fill="#25262B"/>
<path d="M6.24248 0.772031C8.02333 0.695566 9.42236 1.04967 11.0511 1.74039C10.7534 2.41774 10.4775 3.10435 10.2237 3.79928C8.78964 3.29732 7.57373 2.95357 6.01845 3.20641C2.3373 3.7941 1.99248 9.84947 4.8747 11.5824C6.56533 12.5988 8.57617 12.0007 10.3319 11.5828L10.5089 12.0838C10.5888 12.3747 10.9602 13.2585 11.0852 13.6066C9.88652 14.0671 9.04638 14.3256 7.77695 14.4655C3.65302 14.9198 0.287104 12.537 0.0206005 8.26197C-0.238872 4.09771 1.95937 1.06529 6.24248 0.772031Z" fill="#25262B"/>
<path d="M27.3639 4.48063C28.8435 4.35651 30.2492 4.75934 31.2396 5.91783C32.3374 7.20172 32.4199 8.81295 32.2975 10.4225C31.2978 10.4715 30.1701 10.4329 29.1617 10.425C28.0034 10.4227 26.845 10.4278 25.6867 10.4402C25.7755 10.7676 25.8788 11.1342 26.0775 11.4107C27.2758 13.0776 29.8642 12.6413 31.4547 11.9634C31.6063 12.5426 31.8406 13.0882 31.9932 13.6812C30.0226 14.7664 26.5185 14.8696 24.7014 13.3945C22.5806 11.6729 22.3847 8.22574 24.064 6.13297C24.9108 5.0776 26.056 4.60934 27.3639 4.48063ZM25.6782 8.76061L28.0777 8.75944C28.6185 8.75953 29.365 8.74098 29.8825 8.78688C29.7545 7.18697 29.2242 6.40914 27.5057 6.47203C26.14 6.81949 25.8981 7.45797 25.6782 8.76061Z" fill="#25262B"/>
<path d="M38.0369 0.379067C39.2836 0.301333 40.0559 0.4402 41.212 0.880923C41.021 1.48346 40.8427 2.08991 40.677 2.69987C39.8928 2.43112 38.5067 2.09372 37.8473 2.78551C37.3938 3.2612 37.4615 4.11686 37.4717 4.73747C38.2148 4.69596 39.2528 4.72741 40.017 4.72858C40.0342 5.41989 39.9957 6.04743 40.0412 6.75524C39.3326 6.6733 38.1861 6.69821 37.4637 6.70104L37.4587 12.7081L37.4516 14.2634C36.5542 14.2163 35.6029 14.2464 34.7061 14.2741C34.6701 13.113 34.7017 11.8403 34.7054 10.6689L34.6937 6.7151C34.1609 6.69362 33.5728 6.7068 33.0358 6.70788L33.0186 4.74137C33.5716 4.73229 34.149 4.71256 34.6995 4.73961C34.6728 2.15797 35.2844 0.75475 38.0369 0.379067Z" fill="#25262B"/>
<path d="M70.7614 4.52769C72.0226 4.35815 73.5714 4.74399 74.7458 5.17759C74.5694 5.82085 74.4162 6.47026 74.2866 7.12456C73.2158 6.76958 71.1745 6.11909 70.1953 7.03228C70.0783 7.14145 70.0527 7.54019 70.0948 7.69028C70.38 8.70933 72.2852 8.56704 73.1141 8.91196C73.5882 9.0477 74.0047 9.23647 74.3899 9.55415C75.4307 10.4122 75.3944 12.3701 74.4916 13.3212C73.6884 14.1674 72.4306 14.4555 71.2906 14.4893C70.0528 14.5668 68.6095 14.2304 67.4825 13.7325C67.6622 13.148 67.8248 12.5584 67.9701 11.9646C68.9876 12.4346 70.184 12.6741 71.3034 12.6153C72.004 12.5785 72.7493 12.2304 72.5828 11.4161C72.4002 10.5232 70.6256 10.5579 69.9063 10.309C69.4121 10.1381 68.989 10.0417 68.5586 9.72192C67.3441 8.94604 67.1874 7.01606 68.0064 5.89331C68.6684 4.98589 69.6819 4.68901 70.7614 4.52769Z" fill="#FA680B"/>
</svg>
