<svg width="192" height="192" viewBox="0 0 192 192" fill="none" xmlns="http://www.w3.org/2000/svg">
  <rect width="192" height="192" rx="40" fill="#FFF4EB"/>
  <g transform="translate(35 20)">
    <path d="M54 0C57.9 0 61.1 3.1 61.3 7L61.6 15.8C67.1 17.3 72.2 19.4 76.9 22.3L83.6 16.6C86.6 14 91 14.2 93.8 17L105 28.2C107.8 31 108 35.4 105.4 38.4L99.7 45.1C102.6 49.8 104.7 54.9 106.2 60.4L115 60.7C118.9 60.9 122 64.1 122 68V84C122 87.9 118.9 91.1 115 91.3L106.2 91.6C104.7 97.1 102.6 102.2 99.7 106.9L105.4 113.6C108 116.6 107.8 121 105 123.8L93.8 135C91 137.8 86.6 138 83.6 135.4L76.9 129.7C72.2 132.6 67.1 134.7 61.6 136.2L61.3 145C61.1 148.9 57.9 152 54 152H38C34.1 152 30.9 148.9 30.7 145L30.4 136.2C24.9 134.7 19.8 132.6 15.1 129.7L8.4 135.4C5.4 138 1 137.8 -1.8 135L-13 123.8C-15.8 121 -16 116.6 -13.4 113.6L-7.7 106.9C-10.6 102.2 -12.7 97.1 -14.2 91.6L-23 91.3C-26.9 91.1 -30 87.9 -30 84V68C-30 64.1 -26.9 60.9 -23 60.7L-14.2 60.4C-12.7 54.9 -10.6 49.8 -7.7 45.1L-13.4 38.4C-16 35.4 -15.8 31 -13 28.2L-1.8 17C1 14.2 5.4 14 8.4 16.6L15.1 22.3C19.8 19.4 24.9 17.3 30.4 15.8L30.7 7C30.9 3.1 34.1 0 38 0H54Z" fill="#FF6A00"/>
    <circle cx="46" cy="76" r="43" fill="white"/>
    <path d="M26 48C26 42.5 30.5 38 36 38H56C61.5 38 66 42.5 66 48V55C66 58.2 68.6 60.8 71.8 60.8H73.6C75.4 60.8 76.8 62.2 76.8 64C76.8 65.8 75.4 67.2 73.6 67.2H72.2V72C72.2 86.5 60.5 98.2 46 98.2C31.5 98.2 19.8 86.5 19.8 72V67.2H18.4C16.6 67.2 15.2 65.8 15.2 64C15.2 62.2 16.6 60.8 18.4 60.8H20.2C23.4 60.8 26 58.2 26 55V48Z" fill="#FF6A00"/>
    <path d="M32 104C35.4 98.4 40.1 95.6 46 95.6C51.9 95.6 56.6 98.4 60 104" stroke="#FF6A00" stroke-width="7" stroke-linecap="round"/>
    <path d="M29 63C31.4 62.1 33.6 60.7 35.2 58.8C37.9 55.6 39.5 51.5 39.5 47.2V46H52.5V47.2C52.5 51.5 54.1 55.6 56.8 58.8C58.4 60.7 60.6 62.1 63 63" stroke="white" stroke-width="5.5" stroke-linecap="round" stroke-linejoin="round"/>
    <path d="M12 66V88" stroke="#2B2F33" stroke-width="5.5" stroke-linecap="round"/>
    <path d="M7 67H17" stroke="#2B2F33" stroke-width="5.5" stroke-linecap="round"/>
    <path d="M80 66V90" stroke="#2B2F33" stroke-width="5.5" stroke-linecap="round"/>
    <path d="M76.2 66H83.8" stroke="#2B2F33" stroke-width="5.5" stroke-linecap="round"/>
    <path d="M78.2 74H85.8" stroke="#2B2F33" stroke-width="5.5" stroke-linecap="round"/>
    <path d="M80.2 82H87.8" stroke="#2B2F33" stroke-width="5.5" stroke-linecap="round"/>
  </g>
</svg>
